<?xml version="1.0" encoding="UTF-8"?>
<svg id="Laag_1" data-name="Laag 1" xmlns="http://www.w3.org/2000/svg" xmlns:xlink="http://www.w3.org/1999/xlink" viewBox="0 0 54 53">
  <defs>
    <style>
      .cls-1 {
        mask: url(#mask);
      }

      .cls-2 {
        fill: #d4d4d8;
      }

      .cls-3 {
        fill: #fff;
        fill-rule: evenodd;
      }
    </style>
    <mask id="mask" x=".12" y=".01" width="53.88" height="52.8" maskUnits="userSpaceOnUse">
      <g id="mask0_1_184" data-name="mask0 1 184">
        <path class="cls-3" d="m49.73,19.13l-13.77-1.33c-.87-.08-1.62-.64-1.97-1.49l-4.93-12.19c-.79-2.01-3.59-2.01-4.38,0l-4.89,12.19c-.31.85-1.1,1.41-1.97,1.49l-13.76,1.33c-2.05.2-2.88,2.82-1.34,4.22l10.37,9.29c.67.61.95,1.49.75,2.38l-3.12,13.03c-.47,2.05,1.7,3.74,3.51,2.66l11.48-6.88c.75-.44,1.66-.44,2.41,0l11.48,6.88c1.82,1.09,3.98-.56,3.51-2.66l-3.08-13.03c-.2-.89.08-1.77.75-2.38l10.37-9.29c1.5-1.41.63-4.02-1.42-4.22Z"/>
      </g>
    </mask>
  </defs>
  <g class="cls-1">
    <rect class="cls-2" x=".12" y=".01" width="53.88" height="52.8"/>
  </g>
</svg>