<svg width="55" height="53" viewBox="0 0 55 53" fill="none" xmlns="http://www.w3.org/2000/svg">
<mask id="mask0_1_180" style="mask-type:alpha" maskUnits="userSpaceOnUse" x="2" y="2" width="51" height="50">
<path fill-rule="evenodd" clip-rule="evenodd" d="M50.2575 19.2165L36.4919 17.8884C35.6252 17.8079 34.8759 17.2462 34.5199 16.3994L29.5899 4.21104C28.8021 2.19959 26.0018 2.19959 25.2125 4.21104L20.321 16.3994C20.0069 17.2462 19.2176 17.8079 18.3489 17.8884L4.5853 19.2165C2.53441 19.4166 1.70617 22.033 3.24483 23.4395L13.6171 32.7324C14.2876 33.3378 14.5627 34.2214 14.3665 35.1074L11.2507 48.1406C10.7769 50.1933 12.9471 51.8824 14.7614 50.7962L26.237 43.9176C26.9878 43.4735 27.8949 43.4735 28.6443 43.9176L40.1199 50.7962C41.9362 51.8824 44.1044 50.2325 43.6306 48.1406L40.5552 35.1074C40.3571 34.2214 40.6341 33.3378 41.3041 32.7324L51.6769 23.4395C53.1751 22.033 52.3084 19.4166 50.2575 19.2165Z" fill="white"/>
</mask>
<g mask="url(#mask0_1_180)">
<rect x="0.65387" y="0.0997314" width="53.8781" height="52.8006" fill="#3C6FFA"/>
</g>
</svg>
